<?xml version="1.0" encoding="iso-8859-1"?>
<!-- Generator: Adobe Illustrator 19.0.0, SVG Export Plug-In . SVG Version: 6.00 Build 0)  -->
<svg version="1.1" id="Capa_1" xmlns="http://www.w3.org/2000/svg" xmlns:xlink="http://www.w3.org/1999/xlink" x="0px" y="0px"
	 viewBox="0 0 480.01 480.01" style="enable-background:new 0 0 480.01 480.01;" xml:space="preserve">
<g>
	<g>
		<path d="M315.557,115.242c12.48-10.28,20.448-25.848,20.448-43.232v-64c0-2.568-1.232-4.984-3.32-6.496
			c-2.096-1.504-4.776-1.928-7.208-1.088l-45.216,15.072l-37.28-14.912c-1.904-0.768-4.032-0.768-5.936,0l-37.28,14.912
			L154.549,0.426c-2.456-0.84-5.128-0.416-7.224,1.088c-2.088,1.512-3.32,3.928-3.32,6.496v64c0,17.384,7.968,32.952,20.448,43.232
			C71.085,132.066,0.005,213.866,0.005,312.01v64c0,57.344,46.656,104,104,104h272c57.344,0,104-46.656,104-104v-64
			C480.005,213.866,408.925,132.066,315.557,115.242z M160.005,72.01V19.114l37.472,12.488c1.792,0.608,3.744,0.544,5.504-0.16
			l37.024-14.816l37.032,14.816c1.76,0.704,3.704,0.768,5.504,0.16l37.464-12.488V72.01c0,22.056-17.944,40-40,40h-5.76
			l5.512-22.064l-15.512-3.872l-6.48,25.936h-35.52l-6.488-25.936l-15.512,3.872l5.52,22.064h-5.76
			C177.949,112.01,160.005,94.066,160.005,72.01z M464.005,376.01c0,48.52-39.48,88-88,88h-272c-48.52,0-88-39.48-88-88v-64
			c0-101.464,82.536-184,184-184h80c101.464,0,184,82.536,184,184V376.01z"/>
	</g>
</g>
<g>
	<g>
		<path d="M240.005,192.01c-61.76,0-112,50.24-112,112s50.24,112,112,112s112-50.24,112-112S301.765,192.01,240.005,192.01z
			 M240.005,400.01c-52.936,0-96-43.064-96-96c0-52.936,43.064-96,96-96c52.936,0,96,43.064,96,96
			C336.005,356.946,292.941,400.01,240.005,400.01z"/>
	</g>
</g>
<g>
	<g>
		
			<rect x="182.35" y="296.016" transform="matrix(0.5547 -0.8321 0.8321 0.5547 -146.066 335.1143)" width="115.381" height="16.001"/>
	</g>
</g>
<g>
	<g>
		<path d="M280.005,304.01c-13.232,0-24,10.768-24,24s10.768,24,24,24s24-10.768,24-24S293.237,304.01,280.005,304.01z
			 M280.005,336.01c-4.416,0-8-3.584-8-8c0-4.416,3.584-8,8-8c4.416,0,8,3.584,8,8C288.005,332.426,284.421,336.01,280.005,336.01z"
			/>
	</g>
</g>
<g>
	<g>
		<path d="M200.005,256.01c-13.232,0-24,10.768-24,24s10.768,24,24,24s24-10.768,24-24S213.237,256.01,200.005,256.01z
			 M200.005,288.01c-4.416,0-8-3.584-8-8c0-4.416,3.584-8,8-8s8,3.584,8,8C208.005,284.426,204.421,288.01,200.005,288.01z"/>
	</g>
</g>
<g>
</g>
<g>
</g>
<g>
</g>
<g>
</g>
<g>
</g>
<g>
</g>
<g>
</g>
<g>
</g>
<g>
</g>
<g>
</g>
<g>
</g>
<g>
</g>
<g>
</g>
<g>
</g>
<g>
</g>
</svg>
